<svg width="187" height="188" viewBox="0 0 187 188" fill="none" xmlns="http://www.w3.org/2000/svg">
<path d="M93.6021 140.858C119.473 140.858 140.446 119.886 140.446 94.0142C140.446 68.1428 119.473 47.1699 93.6021 47.1699C67.7307 47.1699 46.7578 68.1428 46.7578 94.0142C46.7578 119.886 67.7307 140.858 93.6021 140.858Z" fill="url(#paint0_radial_18721_11822)"/>
<path fill-rule="evenodd" clip-rule="evenodd" d="M93.6021 48.3594C114.312 48.3594 131.106 61.1509 131.106 76.93C131.106 92.7092 114.312 105.501 93.6021 105.501C72.892 105.501 56.0977 92.7092 56.0977 76.93C56.0977 61.1509 72.892 48.3594 93.6021 48.3594Z" fill="url(#paint1_linear_18721_11822)"/>
<path fill-rule="evenodd" clip-rule="evenodd" d="M128.003 121.367C122.231 131.461 109.004 138.539 93.602 138.539C78.1999 138.539 64.9733 131.461 59.2012 121.367C67.4098 128.88 79.7662 133.695 93.602 133.695C107.438 133.695 119.823 128.88 128.003 121.367Z" fill="#FFB52B"/>
<path fill-rule="evenodd" clip-rule="evenodd" d="M91.6001 4.96595C91.6001 3.83472 92.4992 2.93555 93.6015 2.93555C94.7327 2.93555 95.6319 3.83472 95.6319 4.96595V37.9745C95.6319 39.0767 94.7327 40.0049 93.6015 40.0049C92.4992 40.0049 91.6001 39.0767 91.6001 37.9745V4.96595ZM155.152 29.6208C155.935 28.8087 157.211 28.8087 157.994 29.6208C158.806 30.404 158.806 31.6802 157.994 32.4634L134.674 55.813C133.861 56.5962 132.585 56.5962 131.802 55.813C131.019 55.0299 131.019 53.7536 131.802 52.9414L155.152 29.6208ZM182.649 91.9832C183.78 91.9832 184.679 92.8823 184.679 94.0136C184.679 95.1158 183.78 96.015 182.649 96.015H149.641C148.538 96.015 147.61 95.1158 147.61 94.0136C147.61 92.8823 148.538 91.9832 149.641 91.9832H182.649ZM4.55384 96.015C3.45162 96.015 2.52344 95.1158 2.52344 94.0136C2.52344 92.8823 3.45162 91.9832 4.55384 91.9832H37.5624C38.6936 91.9832 39.5928 92.8823 39.5928 94.0136C39.5928 95.1158 38.6936 96.015 37.5624 96.015H4.55384ZM29.2087 32.4634C28.4256 31.6802 28.4256 30.404 29.2087 29.6208C29.9919 28.8087 31.2681 28.8087 32.0803 29.6208L55.4299 52.9414C56.2131 53.7536 56.2131 55.0299 55.4299 55.813C54.6177 56.5962 53.3415 56.5962 52.5583 55.813L29.2087 32.4634ZM20.1879 65.762C19.1437 65.3559 18.6506 64.1667 19.0857 63.1515C19.4918 62.1073 20.681 61.6142 21.6962 62.0492L42.6094 70.693C43.6246 71.128 44.1177 72.2883 43.7116 73.3325C43.2765 74.3477 42.1163 74.8408 41.0721 74.4347L20.1879 65.762ZM61.6371 22.1083C61.2311 21.0641 61.7241 19.9039 62.7393 19.4688C63.7836 19.0627 64.9438 19.5558 65.3789 20.571L74.0226 41.4552C74.4577 42.4994 73.9646 43.6886 72.9204 44.0947C71.9052 44.5298 70.7159 44.0367 70.3098 42.9925L61.6371 22.1083ZM121.853 20.571C122.259 19.5558 123.448 19.0627 124.464 19.4688C125.508 19.9039 126.001 21.0641 125.566 22.1083L116.922 42.9925C116.487 44.0367 115.327 44.5298 114.283 44.0947C113.267 43.6886 112.774 42.4994 113.18 41.4552L121.853 20.571ZM165.507 62.0492C166.551 61.6142 167.711 62.1073 168.146 63.1515C168.552 64.1667 168.059 65.3559 167.044 65.762L146.16 74.4347C145.116 74.8408 143.926 74.3477 143.52 73.3325C143.085 72.2883 143.578 71.128 144.623 70.693L165.507 62.0492ZM157.994 155.535C158.806 156.347 158.806 157.623 157.994 158.406C157.211 159.189 155.935 159.189 155.152 158.406L131.802 135.057C131.019 134.274 131.019 132.997 131.802 132.185C132.585 131.402 133.861 131.402 134.674 132.185L157.994 155.535ZM95.6319 183.061C95.6319 184.163 94.7327 185.092 93.6015 185.092C92.4992 185.092 91.6001 184.163 91.6001 183.061V150.053C91.6001 148.921 92.4992 148.022 93.6015 148.022C94.7327 148.022 95.6319 148.921 95.6319 150.053V183.061ZM32.0803 158.406C31.2681 159.189 29.9919 159.189 29.2087 158.406C28.4256 157.623 28.4256 156.347 29.2087 155.535L52.5583 132.185C53.3415 131.402 54.6177 131.402 55.4299 132.185C56.2131 132.997 56.2131 134.274 55.4299 135.057L32.0803 158.406ZM167.044 122.236C168.059 122.671 168.552 123.831 168.146 124.876C167.711 125.891 166.551 126.384 165.507 125.978L144.623 117.305C143.578 116.899 143.085 115.71 143.52 114.695C143.926 113.65 145.116 113.157 146.16 113.592L167.044 122.236ZM125.566 165.919C126.001 166.934 125.508 168.123 124.464 168.529C123.448 168.964 122.259 168.471 121.853 167.427L113.18 146.543C112.774 145.499 113.267 144.339 114.283 143.903C115.327 143.497 116.487 143.99 116.922 145.006L125.566 165.919ZM65.3789 167.427C64.9438 168.471 63.7836 168.964 62.7393 168.529C61.7241 168.123 61.2311 166.934 61.6371 165.919L70.3098 145.006C70.7159 143.99 71.9052 143.497 72.9204 143.903C73.9646 144.339 74.4577 145.499 74.0226 146.543L65.3789 167.427ZM21.6962 125.978C20.681 126.384 19.4918 125.891 19.0857 124.876C18.6506 123.831 19.1437 122.671 20.1879 122.236L41.0721 113.592C42.1163 113.157 43.2765 113.65 43.7116 114.695C44.1177 115.71 43.6246 116.899 42.6094 117.305L21.6962 125.978Z" fill="url(#paint2_linear_18721_11822)"/>
<defs>
<radialGradient id="paint0_radial_18721_11822" cx="0" cy="0" r="1" gradientUnits="userSpaceOnUse" gradientTransform="translate(94.65 59.4255) rotate(90.5532) scale(73.4062 73.4062)">
<stop stop-color="#FFFF00"/>
<stop offset="1" stop-color="#FF9100"/>
</radialGradient>
<linearGradient id="paint1_linear_18721_11822" x1="93.6021" y1="48.3594" x2="93.6021" y2="105.501" gradientUnits="userSpaceOnUse">
<stop stop-color="white" stop-opacity="0.8"/>
<stop offset="1" stop-color="white" stop-opacity="0"/>
</linearGradient>
<linearGradient id="paint2_linear_18721_11822" x1="35.4159" y1="178.884" x2="163.795" y2="31.7092" gradientUnits="userSpaceOnUse">
<stop stop-color="#FF6400"/>
<stop offset="1" stop-color="#FFE300"/>
</linearGradient>
</defs>
</svg>
