<svg width="187" height="188" viewBox="0 0 187 188" fill="none" xmlns="http://www.w3.org/2000/svg">
<path d="M121.461 126.873C144.808 126.873 163.735 107.947 163.735 84.5998C163.735 61.2527 144.808 42.3262 121.461 42.3262C98.114 42.3262 79.1875 61.2527 79.1875 84.5998C79.1875 107.947 98.114 126.873 121.461 126.873Z" fill="url(#paint0_radial_18721_11840)"/>
<path fill-rule="evenodd" clip-rule="evenodd" d="M121.462 43.4297C140.16 43.4297 155.308 54.9589 155.308 69.2109C155.308 83.4457 140.16 94.9921 121.462 94.9921C102.763 94.9921 87.6152 83.4457 87.6152 69.2109C87.6152 54.9589 102.763 43.4297 121.462 43.4297Z" fill="url(#paint1_linear_18721_11840)"/>
<path fill-rule="evenodd" clip-rule="evenodd" d="M152.516 109.295C147.294 118.429 135.369 124.805 121.461 124.805C107.571 124.805 95.6283 118.429 90.4238 109.295C97.817 116.085 108.984 120.41 121.461 120.41C133.955 120.41 145.123 116.085 152.516 109.295Z" fill="#FFB52B"/>
<path fill-rule="evenodd" clip-rule="evenodd" d="M120.824 111.226C120.996 111.226 121.169 111.226 121.341 111.226C130.854 111.226 138.575 118.93 138.575 128.442C138.575 137.972 130.854 145.676 121.341 145.676C95.9218 145.676 70.5197 145.676 45.1176 145.676C33.0542 145.676 23.2656 135.904 23.2656 123.841C23.2656 112.467 31.9513 103.109 43.0668 102.075C43.6872 88.254 55.0958 77.2246 69.0721 77.2246C78.1369 77.2246 86.4606 81.9121 91.1826 89.4948C94.3708 87.4268 98.076 86.3066 101.902 86.3066C112.759 86.3066 121.548 95.0957 121.548 105.953C121.548 107.745 121.307 109.52 120.824 111.226Z" fill="url(#paint2_radial_18721_11840)"/>
<path fill-rule="evenodd" clip-rule="evenodd" d="M45.1183 104.075C45.1183 103.799 45.1183 103.54 45.1183 103.265C45.1183 90.0294 55.8375 79.293 69.0728 79.293C78.4822 79.293 86.5992 84.7043 90.5284 92.5799C93.596 89.9605 97.5769 88.3922 101.902 88.3922C111.605 88.3922 119.463 96.2507 119.463 105.953C119.463 108.762 118.808 111.399 117.637 113.76C118.826 113.467 120.067 113.295 121.342 113.295C129.7 113.295 136.49 120.085 136.49 128.443C136.49 136.818 129.7 143.608 121.342 143.608C106.848 143.608 69.159 143.608 45.1183 143.608C34.1923 143.608 25.3516 134.75 25.3516 123.841C25.3516 112.915 34.1923 104.075 45.1183 104.075Z" fill="url(#paint3_radial_18721_11840)"/>
<path fill-rule="evenodd" clip-rule="evenodd" d="M131.25 123.754C132.457 125.546 133.163 127.718 133.163 130.061C133.163 136.334 128.079 141.418 121.806 141.418C121.341 141.418 120.876 141.384 120.428 141.332C126.976 140.608 132.078 135.059 132.078 128.321C132.078 126.701 131.785 125.167 131.25 123.754Z" fill="#5C7F9C"/>
<path fill-rule="evenodd" clip-rule="evenodd" d="M58.1284 118.258C59.6967 120.619 60.6273 123.462 60.6273 126.53C60.6273 134.75 53.9579 141.42 45.7376 141.42C45.1172 141.42 44.5312 141.385 43.9453 141.299C52.5276 140.351 59.1969 133.079 59.1969 124.238C59.1969 122.135 58.8178 120.119 58.1284 118.258Z" fill="#5C7F9C"/>
<path fill-rule="evenodd" clip-rule="evenodd" d="M68.1929 81.2754C79.4118 81.2754 88.5111 89.0477 88.5111 98.6467C88.5111 108.246 79.4118 116.018 68.1929 116.018C56.9567 116.018 47.8574 108.246 47.8574 98.6467C47.8574 89.0477 56.9567 81.2754 68.1929 81.2754Z" fill="url(#paint4_linear_18721_11840)"/>
<path fill-rule="evenodd" clip-rule="evenodd" d="M102.212 90.5469C110.432 90.5469 117.101 96.2511 117.101 103.282C117.101 110.314 110.432 116.018 102.212 116.018C93.974 116.018 87.3047 110.314 87.3047 103.282C87.3047 96.2511 93.974 90.5469 102.212 90.5469Z" fill="url(#paint5_linear_18721_11840)"/>
<path fill-rule="evenodd" clip-rule="evenodd" d="M114.603 98.7656C116.189 101.144 117.102 103.97 117.102 107.038C117.102 115.258 110.433 121.927 102.212 121.927C101.609 121.927 101.006 121.893 100.42 121.824C109.002 120.859 115.672 113.586 115.672 104.763C115.672 102.643 115.292 100.627 114.603 98.7656Z" fill="#5C7F9C"/>
<defs>
<radialGradient id="paint0_radial_18721_11840" cx="0" cy="0" r="1" gradientUnits="userSpaceOnUse" gradientTransform="translate(121.815 53.6283) rotate(90.5532) scale(73.418)">
<stop stop-color="#FFFF00"/>
<stop offset="1" stop-color="#FF9100"/>
</radialGradient>
<linearGradient id="paint1_linear_18721_11840" x1="121.462" y1="43.4297" x2="121.462" y2="94.9921" gradientUnits="userSpaceOnUse">
<stop stop-color="white" stop-opacity="0.6"/>
<stop offset="1" stop-color="white" stop-opacity="0"/>
</linearGradient>
<radialGradient id="paint2_radial_18721_11840" cx="0" cy="0" r="1" gradientUnits="userSpaceOnUse" gradientTransform="translate(68.3245 76.4029) rotate(79.5801) scale(67.8958 72.3757)">
<stop stop-color="#F2FAFF"/>
<stop offset="1" stop-color="#5C7F9C"/>
</radialGradient>
<radialGradient id="paint3_radial_18721_11840" cx="0" cy="0" r="1" gradientUnits="userSpaceOnUse" gradientTransform="translate(69.1149 79.9607) rotate(79.3127) scale(54.126 59.1095)">
<stop stop-color="#E3F2FD"/>
<stop offset="1" stop-color="#8DB5D5"/>
</radialGradient>
<linearGradient id="paint4_linear_18721_11840" x1="68.1843" y1="81.2754" x2="68.1843" y2="116.018" gradientUnits="userSpaceOnUse">
<stop stop-color="white" stop-opacity="0.6"/>
<stop offset="1" stop-color="white" stop-opacity="0"/>
</linearGradient>
<linearGradient id="paint5_linear_18721_11840" x1="102.203" y1="90.5469" x2="102.203" y2="116.018" gradientUnits="userSpaceOnUse">
<stop stop-color="white" stop-opacity="0.4"/>
<stop offset="1" stop-color="white" stop-opacity="0"/>
</linearGradient>
</defs>
</svg>
