<svg width="187" height="188" viewBox="0 0 187 188" fill="none" xmlns="http://www.w3.org/2000/svg">
<path fill-rule="evenodd" clip-rule="evenodd" d="M170.374 94.703C171.461 94.4992 172.525 95.224 172.707 96.3339C172.91 97.4211 172.186 98.4856 171.098 98.6668L148.856 102.789C147.769 102.993 146.704 102.268 146.5 101.181C146.319 100.071 147.044 99.0292 148.131 98.8254L170.374 94.703ZM126.41 39.7084C126.908 38.7118 128.108 38.3041 129.105 38.8024C130.102 39.278 130.509 40.5011 130.011 41.4977L119.932 61.7244C119.433 62.721 118.233 63.1287 117.236 62.653C116.24 62.1547 115.832 60.9316 116.308 59.935L126.41 39.7084ZM163.171 55.79C164.054 55.1332 165.323 55.2917 166.002 56.1977C166.659 57.0811 166.478 58.3495 165.594 59.029L139.23 78.8932C138.346 79.5727 137.078 79.3915 136.398 78.4855C135.719 77.6022 135.9 76.3337 136.783 75.6542L163.171 55.79ZM90.962 21.928C90.962 20.8181 91.868 19.9121 92.9779 19.9121C94.0877 19.9121 94.9937 20.8181 94.9937 21.928V54.952C94.9937 56.0618 94.0877 56.9678 92.9779 56.9678C91.868 56.9678 90.962 56.0618 90.962 54.952V21.928ZM55.9448 41.4977C55.4465 40.5011 55.8542 39.278 56.8508 38.8024C57.8474 38.3041 59.0479 38.7118 59.5462 39.7084L69.6482 59.935C70.1238 60.9316 69.7161 62.1547 68.7195 62.653C67.7229 63.1287 66.5224 62.721 66.0241 61.7244L55.9448 41.4977ZM14.8574 98.6668C13.7701 98.4856 13.0453 97.4211 13.2492 96.3339C13.4304 95.224 14.495 94.4992 15.5822 94.703L37.8247 98.8254C38.9119 99.0292 39.6367 100.071 39.4555 101.181C39.2516 102.268 38.1871 102.993 37.0998 102.789L14.8574 98.6668ZM20.3614 59.029C19.478 58.3495 19.2968 57.0811 19.9537 56.1977C20.6332 55.2917 21.9016 55.1332 22.8076 55.79L49.1724 75.6542C50.0558 76.3337 50.237 77.6022 49.5575 78.4855C48.8779 79.3915 47.6095 79.5727 46.7262 78.8932L20.3614 59.029Z" fill="url(#paint0_linear_18721_11804)"/>
<path fill-rule="evenodd" clip-rule="evenodd" d="M92.9773 64.1484C118.98 64.1484 139.795 85.2131 139.818 110.921C139.818 111.487 139.614 111.986 139.206 112.393C138.799 112.801 138.323 113.005 137.734 113.005H48.2205C47.6316 113.005 47.156 112.801 46.7483 112.393C46.3406 111.986 46.1367 111.487 46.1367 110.921C46.1594 85.2131 66.9749 64.1484 92.9773 64.1484ZM50.0326 118.713H135.922C137.123 118.713 138.119 119.709 138.119 120.91C138.119 122.11 137.123 123.107 135.922 123.107H50.0326C48.8321 123.107 47.8355 122.11 47.8355 120.91C47.8355 119.709 48.8321 118.713 50.0326 118.713ZM53.9737 128.815H131.981C133.204 128.815 134.178 129.811 134.178 131.012C134.178 132.235 133.204 133.209 131.981 133.209H53.9737C52.7732 133.209 51.7766 132.235 51.7766 131.012C51.7766 129.811 52.7732 128.815 53.9737 128.815ZM62.8979 138.917H123.057C124.28 138.917 125.254 139.913 125.254 141.114C125.254 142.337 124.28 143.311 123.057 143.311H62.8979C61.6748 143.311 60.7008 142.337 60.7008 141.114C60.7008 139.913 61.6748 138.917 62.8979 138.917ZM74.6986 149.019H111.256C112.456 149.019 113.453 150.015 113.453 151.238C113.453 152.439 112.456 153.435 111.256 153.435H74.6986C73.4981 153.435 72.5015 152.439 72.5015 151.238C72.5015 150.015 73.4981 149.019 74.6986 149.019Z" fill="url(#paint1_radial_18721_11804)"/>
<path fill-rule="evenodd" clip-rule="evenodd" d="M92.9777 66.5723C110.803 66.5723 125.254 76.4251 125.254 88.5656C125.254 100.706 110.803 110.559 92.9777 110.559C75.152 110.559 60.7012 100.706 60.7012 88.5656C60.7012 76.4251 75.152 66.5723 92.9777 66.5723Z" fill="url(#paint2_linear_18721_11804)"/>
<defs>
<linearGradient id="paint0_linear_18721_11804" x1="48.742" y1="113.956" x2="117.531" y2="26.0956" gradientUnits="userSpaceOnUse">
<stop stop-color="#FFA061"/>
<stop offset="1" stop-color="#FFE0A6"/>
</linearGradient>
<radialGradient id="paint1_radial_18721_11804" cx="0" cy="0" r="1" gradientUnits="userSpaceOnUse" gradientTransform="translate(92.9625 66.4329) rotate(89.9997) scale(86.8443 91.1167)">
<stop stop-color="#FFE852"/>
<stop offset="1" stop-color="#FFAF59"/>
</radialGradient>
<linearGradient id="paint2_linear_18721_11804" x1="92.9777" y1="66.5723" x2="92.9777" y2="110.559" gradientUnits="userSpaceOnUse">
<stop stop-color="white" stop-opacity="0.6"/>
<stop offset="1" stop-color="white" stop-opacity="0"/>
</linearGradient>
</defs>
</svg>
