<svg width="32" height="33" viewBox="0 0 32 33" fill="none" xmlns="http://www.w3.org/2000/svg">
<g clip-path="url(#clip0_2050_459)">
<path d="M27.5842 6.73757C25.4208 7.52815 23.1683 8.01698 20.8747 8.26312C20.6046 8.29265 20.365 8.36846 20.1585 8.47873C19.5903 8.26656 18.9605 8.21241 18.404 8.35615C18.3654 8.36649 18.3293 8.38028 18.2886 8.39209C15.152 7.51289 12.3696 5.81702 10.3684 3.26065C9.12265 1.66865 6.30202 3.23013 7.5666 4.84577C9.87092 7.78857 12.8655 9.92355 16.4044 11.1094C16.4085 11.2802 16.4243 11.453 16.4532 11.6258C16.6023 12.506 16.7681 13.3862 16.8663 14.2728C16.9019 14.5868 16.9187 14.9024 16.9299 15.2179C16.9345 15.3134 16.8678 16.0489 16.8983 15.9883C16.6735 16.9507 15.8164 17.7659 14.7695 18.7677C11.5562 16.8912 8.26298 15.1308 4.95402 13.4275C2.92336 12.3829 1.11958 15.3646 3.15278 16.4102C6.40884 18.0854 9.62523 19.8364 12.7958 21.6613C13.4764 22.0516 14.1449 22.4661 14.8092 22.885C14.9852 23.0258 15.1775 23.1479 15.3809 23.2469C16.672 24.0729 17.9559 24.9107 19.2876 25.6595C19.9921 26.0577 20.5329 26.2133 21.1423 26.7489C21.2298 26.8267 21.301 26.8631 21.3539 26.8823C21.3162 26.9044 21.2679 26.9399 21.2104 26.9955C20.4159 27.7792 18.4396 28.1366 17.6883 28.9749C16.1877 30.6487 18.3445 32.726 20.2119 31.4176C22.3158 29.9432 25.992 29.0109 24.9935 26.1532C24.4548 24.6149 22.9013 23.6353 21.5039 22.8988C20.7938 22.5247 20.1381 22.1142 19.5053 21.7016C20.6778 20.4813 21.7089 19.1536 22.1907 17.5163C22.7451 15.628 22.3865 13.5353 22.0238 11.5781C24.2417 11.2881 26.4244 10.8377 28.5314 10.0668C30.6627 9.28852 29.74 5.94846 27.5842 6.73757Z" fill="#4E6932"/>
<path d="M18.2575 7.25097C19.8044 7.25097 21.0583 6.03746 21.0583 4.54052C21.0583 3.04359 19.8044 1.83008 18.2575 1.83008C16.7107 1.83008 15.4567 3.04359 15.4567 4.54052C15.4567 6.03746 16.7107 7.25097 18.2575 7.25097Z" fill="#4E6932"/>
</g>
<defs>
<clipPath id="clip0_2050_459">
<rect width="31" height="30" fill="white" transform="translate(0.5 1.83008)"/>
</clipPath>
</defs>
</svg>
