<svg width="32" height="33" viewBox="0 0 32 33" fill="none" xmlns="http://www.w3.org/2000/svg">
<path d="M28.2593 7.08606C26.6218 11.0373 22.8843 16.1968 19.3218 19.5681C18.8093 16.4506 16.2343 14.0098 12.9844 13.5748C16.4843 10.119 21.8593 6.45772 25.9593 4.86272C26.6843 4.59689 27.4093 4.80231 27.8593 5.23731C28.3343 5.69647 28.5593 6.38522 28.2593 7.08606Z" fill="#4E6932"/>
<path d="M18.2234 20.5627C17.9734 20.7681 17.7234 20.9735 17.4734 21.1668L15.2359 22.8948C15.2359 22.8585 15.2234 22.8102 15.2234 22.7618C15.0484 21.4689 14.4234 20.2727 13.4109 19.2939C12.3859 18.3031 11.1109 17.6989 9.71094 17.5298C9.67344 17.5298 9.62344 17.5177 9.58594 17.5177L11.3984 15.3064C11.5734 15.0889 11.7609 14.8835 11.9609 14.666L12.8109 14.7748C15.4984 15.1373 17.6609 17.1793 18.0859 19.7652L18.2234 20.5627Z" fill="#4E6932"/>
<path d="M14.0353 23.6199C14.0353 24.9491 13.5103 26.2178 12.5103 27.1724C11.7478 27.9216 10.7228 28.4291 9.47276 28.5741L6.41025 28.9003C4.73525 29.0816 3.29775 27.692 3.48525 26.0608L3.82275 23.0883C4.12275 20.442 6.41025 18.7503 8.83525 18.702C9.07275 18.6899 9.33525 18.702 9.58525 18.7262C10.6478 18.8591 11.6728 19.3303 12.5353 20.152C13.3728 20.9616 13.8478 21.9162 13.9853 22.9191C14.0103 23.1608 14.0353 23.3903 14.0353 23.6199Z" fill="#4E6932"/>
</svg>
