<svg width="32" height="33" viewBox="0 0 32 33" fill="none" xmlns="http://www.w3.org/2000/svg">
<path d="M28.5 7.89414V22.7567C28.5 23.9692 27.5125 25.0817 26.3 25.2317L25.9125 25.2817C23.8625 25.5567 20.975 26.4067 18.65 27.3817C17.8375 27.7192 16.9375 27.1067 16.9375 26.2192V8.83164C16.9375 8.36914 17.2 7.94414 17.6125 7.71914C19.9 6.48164 23.3625 5.38164 25.7125 5.18164H25.7875C27.2875 5.18164 28.5 6.39414 28.5 7.89414Z" fill="#4E6932"/>
<path d="M14.3844 7.71914C12.0969 6.48164 8.63438 5.38164 6.28437 5.18164H6.19687C4.69687 5.18164 3.48438 6.39414 3.48438 7.89414V22.7567C3.48438 23.9692 4.47187 25.0817 5.68438 25.2317L6.07187 25.2817C8.12187 25.5567 11.0094 26.4067 13.3344 27.3817C14.1469 27.7192 15.0469 27.1067 15.0469 26.2192V8.83164C15.0469 8.35664 14.7969 7.94414 14.3844 7.71914ZM7.24688 11.5066H10.0594C10.5719 11.5066 10.9969 11.9316 10.9969 12.4441C10.9969 12.9691 10.5719 13.3816 10.0594 13.3816H7.24688C6.73438 13.3816 6.30938 12.9691 6.30938 12.4441C6.30938 11.9316 6.73438 11.5066 7.24688 11.5066ZM10.9969 17.1317H7.24688C6.73438 17.1317 6.30938 16.7192 6.30938 16.1942C6.30938 15.6817 6.73438 15.2567 7.24688 15.2567H10.9969C11.5094 15.2567 11.9344 15.6817 11.9344 16.1942C11.9344 16.7192 11.5094 17.1317 10.9969 17.1317Z" fill="#4E6932"/>
</svg>
