<svg width="32" height="33" viewBox="0 0 32 33" fill="none" xmlns="http://www.w3.org/2000/svg">
<g clip-path="url(#clip0_101_476)">
<path d="M23.84 3.50817C23.6934 3.52629 23.5622 3.60559 23.4725 3.72567L21.7925 5.93692C21.4775 5.51324 20.9831 5.23004 20.4275 5.23004H18.8525C17.9009 5.23004 17.12 6.03887 17.12 7.02442V11.5557C17.12 12.5412 17.9009 13.35 18.8525 13.35H20.4275C20.9831 13.35 21.4775 13.0668 21.7925 12.6432L23.4725 14.8544C23.6366 15.0674 23.9231 15.1286 24.155 14.9994L29.7025 11.8638C29.9344 11.7346 30.0416 11.4537 29.9606 11.1954C29.8775 10.9349 29.6303 10.7763 29.37 10.8125C29.3022 10.8239 29.2366 10.8488 29.1775 10.885L24.05 13.8032L22.16 11.32V7.27817L24.05 4.79504L29.1775 7.69504C29.3481 7.81512 29.5691 7.82418 29.7484 7.71996C29.9278 7.61574 30.035 7.41637 30.0241 7.2034C30.0153 6.99043 29.8906 6.80238 29.7025 6.71629L24.155 3.58067C24.0588 3.52403 23.9494 3.4991 23.84 3.50817ZM7.04 4.07004C4.26188 4.07004 2 6.4127 2 9.29004C2 12.1674 4.26188 14.51 7.04 14.51C9.81813 14.51 12.08 12.1674 12.08 9.29004C12.08 6.4127 9.81813 4.07004 7.04 4.07004ZM12.465 6.39004C12.9091 7.27137 13.2 8.22973 13.2 9.29004C13.2 10.3504 12.9091 11.8887 12.465 12.77H15.9825C15.9409 12.5684 15.9475 11.823 15.9475 11.61V6.97004C15.9475 6.75707 15.9409 6.59168 15.9825 6.39004H12.465ZM7.04 6.58942C8.47281 6.58942 9.6475 7.80606 9.6475 9.29004C9.6475 10.774 8.47281 11.9907 7.04 11.9907C5.60719 11.9907 4.4325 10.774 4.4325 9.29004C4.4325 7.80606 5.60719 6.58942 7.04 6.58942ZM11.975 13.0963C10.8506 14.6505 9.05688 15.67 7.04 15.67C6.35313 15.67 5.69688 15.5409 5.08 15.3257L9.9975 24.9319H18.4325L11.975 13.0963ZM5.85 26.11C4.94219 26.11 4.24 26.8736 4.24 27.85V30.75C4.24 31.0876 4.47406 31.33 4.8 31.33H23.84C24.1659 31.33 24.4 31.0876 24.4 30.75V27.85C24.4 26.8736 23.6978 26.11 22.79 26.11H5.85Z" fill="#4E6932"/>
</g>
<defs>
<clipPath id="clip0_101_476">
<rect width="28" height="29" fill="white" transform="translate(2 2.33008)"/>
</clipPath>
</defs>
</svg>
