<svg width="32" height="33" viewBox="0 0 32 33" fill="none" xmlns="http://www.w3.org/2000/svg">
<path d="M21.633 21.2325C22.4147 20.7008 23.4414 21.2808 23.4414 22.2475V23.8063C23.4414 25.3408 22.2864 26.9842 20.898 27.4675L17.1764 28.7483C16.523 28.9779 15.4614 28.9779 14.8197 28.7483L11.098 27.4675C9.69802 26.9842 8.55469 25.3408 8.55469 23.8063V22.2354C8.55469 21.2808 9.58135 20.7008 10.3514 21.2204L12.7547 22.8396C13.6764 23.48 14.843 23.7942 16.0097 23.7942C17.1764 23.7942 18.343 23.48 19.2647 22.8396L21.633 21.2325Z" fill="#4E6932"/>
<path d="M25.3127 10.1363L18.3243 5.38758C17.0643 4.52966 14.9877 4.52966 13.7277 5.38758L6.70437 10.1363C4.45271 11.6467 4.45271 15.0663 6.70437 16.5888L8.57104 17.8455L13.7277 21.3255C14.9877 22.1834 17.0643 22.1834 18.3243 21.3255L23.446 17.8455L25.0443 16.758V20.4555C25.0443 20.9509 25.441 21.3618 25.9193 21.3618C26.3977 21.3618 26.7943 20.9509 26.7943 20.4555V14.5105C27.261 12.9517 26.7827 11.1392 25.3127 10.1363Z" fill="#4E6932"/>
</svg>
