<svg width="100" height="100" viewBox="0 0 100 100" fill="none" xmlns="http://www.w3.org/2000/svg">
<g clip-path="url(#clip0_20014_12708)">
<path fill-rule="evenodd" clip-rule="evenodd" d="M64.8193 0H95.1807C97.8313 0 100 2.16867 100 4.81928V44.0964C100 46.747 97.8313 48.9157 95.1807 48.9157H64.8193C62.1687 48.9157 60 46.747 60 44.0964V4.81928C60 2.16867 62.1687 0 64.8193 0ZM67.7108 11.3253C66.747 11.3253 65.7831 10.3614 65.7831 9.39759C65.7831 8.19277 66.747 7.22892 67.7108 7.22892H92.2892C93.253 7.22892 94.2169 8.19277 94.2169 9.39759C94.2169 10.3614 93.253 11.3253 92.2892 11.3253H67.7108ZM67.7108 20C66.747 20 65.7831 19.0361 65.7831 17.8313C65.7831 16.6265 66.747 15.9036 67.7108 15.9036H92.2892C93.253 15.9036 94.2169 16.6265 94.2169 17.8313C94.2169 19.0361 93.253 20 92.2892 20H67.7108ZM67.7108 28.4337C66.747 28.4337 65.7831 27.4699 65.7831 26.506C65.7831 25.3012 66.747 24.3373 67.7108 24.3373H80C81.2048 24.3373 82.1687 25.3012 82.1687 26.506C82.1687 27.4699 81.2048 28.4337 80 28.4337H67.7108ZM80.9639 39.5181C80 38.5542 80 37.3494 80.7229 36.3855C81.4458 35.6627 82.8916 35.6627 83.6145 36.3855L86.2651 38.5542L90.6024 32.5301C91.3253 31.8072 92.5301 31.5663 93.494 32.2892C94.4578 32.7711 94.4578 34.2169 93.9759 35.1807L87.9518 43.1325C87.2289 43.8554 86.0241 43.8554 85.0602 43.1325L80.9639 39.5181Z" fill="#4E6932"/>
</g>
<defs>
<clipPath id="clip0_20014_12708">
<rect width="40" height="48.9157" fill="white" transform="translate(60)"/>
</clipPath>
</defs>
</svg>
