<svg width="100" height="100" viewBox="0 0 100 100" fill="none" xmlns="http://www.w3.org/2000/svg">
<g clip-path="url(#clip0_20014_11969)">
<path fill-rule="evenodd" clip-rule="evenodd" d="M52 38.6295V13.7689H100V38.6295C100 41.1155 97.8964 43.2191 95.4104 43.2191H56.5896C54.1036 43.2191 52 41.1155 52 38.6295ZM89.8645 2.10359C89.8645 0.956175 90.8207 0 91.9681 0C93.1155 0 94.0717 0.956175 94.0717 2.10359V4.01594H95.4104C97.8964 4.01594 100 6.11952 100 8.60558V9.75299H52V8.60558C52 6.11952 54.1036 4.01594 56.5896 4.01594H57.9283V2.10359C57.9283 0.956175 58.8845 0 60.0319 0C61.1793 0 62.1355 0.956175 62.1355 2.10359V4.01594H63.2829V2.10359C63.2829 0.956175 64.239 0 65.3865 0C66.5339 0 67.2988 0.956175 67.2988 2.10359V4.01594H84.7012V2.10359C84.7012 0.956175 85.4661 0 86.6135 0C87.761 0 88.7171 0.956175 88.7171 2.10359V4.01594H89.8645V2.10359ZM59.4582 19.1235H62.1355C63.2829 19.1235 64.0478 19.8884 64.0478 20.8446V23.5219C64.0478 24.6693 63.2829 25.4343 62.1355 25.4343H59.4582C58.502 25.4343 57.7371 24.6693 57.7371 23.5219V20.8446C57.7371 19.8884 58.502 19.1235 59.4582 19.1235ZM69.5936 19.1235H72.2709C73.2271 19.1235 74.1833 19.8884 74.1833 20.8446V23.5219C74.1833 24.6693 73.2271 25.4343 72.2709 25.4343H69.5936C68.6375 25.4343 67.6813 24.6693 67.6813 23.5219V20.8446C67.6813 19.8884 68.6375 19.1235 69.5936 19.1235ZM79.7291 19.1235H82.4064C83.3626 19.1235 84.3187 19.8884 84.3187 20.8446V23.5219C84.3187 24.6693 83.3626 25.4343 82.4064 25.4343H79.7291C78.7729 25.4343 77.8167 24.6693 77.8167 23.5219V20.8446C77.8167 19.8884 78.7729 19.1235 79.7291 19.1235ZM89.8645 19.1235H92.5418C93.498 19.1235 94.263 19.8884 94.263 20.8446V23.5219C94.263 24.6693 93.498 25.4343 92.5418 25.4343H89.8645C88.7171 25.4343 87.9522 24.6693 87.9522 23.5219V20.8446C87.9522 19.8884 88.7171 19.1235 89.8645 19.1235ZM59.4582 31.1713H62.1355C63.2829 31.1713 64.0478 32.1275 64.0478 33.0837V35.761C64.0478 36.7171 63.2829 37.6733 62.1355 37.6733H59.4582C58.502 37.6733 57.7371 36.7171 57.7371 35.761V33.0837C57.7371 32.1275 58.502 31.1713 59.4582 31.1713ZM69.5936 31.1713H72.2709C73.2271 31.1713 74.1833 32.1275 74.1833 33.0837V35.761C74.1833 36.7171 73.2271 37.6733 72.2709 37.6733H69.5936C68.6375 37.6733 67.6813 36.7171 67.6813 35.761V33.0837C67.6813 32.1275 68.6375 31.1713 69.5936 31.1713ZM79.7291 31.1713H82.4064C83.3626 31.1713 84.3187 32.1275 84.3187 33.0837V35.761C84.3187 36.7171 83.3626 37.6733 82.4064 37.6733H79.7291C78.7729 37.6733 77.8167 36.7171 77.8167 35.761V33.0837C77.8167 32.1275 78.7729 31.1713 79.7291 31.1713ZM89.8645 31.1713H92.5418C93.498 31.1713 94.263 32.1275 94.263 33.0837V35.761C94.263 36.7171 93.498 37.6733 92.5418 37.6733H89.8645C88.7171 37.6733 87.9522 36.7171 87.9522 35.761V33.0837C87.9522 32.1275 88.7171 31.1713 89.8645 31.1713Z" fill="#4E6932"/>
</g>
<defs>
<clipPath id="clip0_20014_11969">
<rect width="48" height="43.2191" fill="white" transform="translate(52)"/>
</clipPath>
</defs>
</svg>
