<svg width="100" height="100" viewBox="0 0 100 100" fill="none" xmlns="http://www.w3.org/2000/svg">
<g clip-path="url(#clip0_20014_9048)">
<path fill-rule="evenodd" clip-rule="evenodd" d="M90.2785 45.2771C90.2785 46.1772 89.5584 46.8973 88.6582 46.8973C87.7581 46.8973 87.038 46.1772 87.038 45.2771V23.4037C86.5879 23.6737 86.1378 23.8537 85.5978 23.9437V21.3333C85.5978 20.0731 84.9677 19.083 83.9775 18.4529L75.6062 12.962C76.3263 11.1617 77.5865 9.6315 79.2068 8.64135C79.2068 8.37131 79.2068 8.10126 79.2068 7.74121C79.2068 4.95077 81.4571 2.70042 84.2475 2.70042C84.3376 2.70042 84.5176 2.70042 84.6976 2.79044C85.1477 1.17018 86.6779 0 88.3882 0C90.5485 0 92.2588 1.71027 92.2588 3.8706C92.2588 4.23066 92.2588 4.5007 92.1688 4.77074C92.4388 4.77074 92.7089 4.68073 92.9789 4.68073C95.4093 4.68073 97.3896 6.66104 97.3896 9.09142C97.3896 9.90155 97.1195 10.7117 96.6695 11.4318C98.6498 12.602 100 14.7623 100 17.2827C100 20.9733 96.9395 24.0338 93.1589 24.0338C92.1688 24.0338 91.1786 23.7637 90.2785 23.4037V45.2771ZM46.9817 46.2672C46.9817 47.1674 46.2616 47.8875 45.3615 47.8875C44.4613 47.8875 43.7412 47.1674 43.7412 46.2672V27.5443C43.0211 27.9044 42.301 28.0844 41.4008 28.0844C38.4304 28.0844 36 25.654 36 22.6835C36 21.2433 36.5401 19.8931 37.4402 18.993C36.5401 18.0928 36 16.8326 36 15.3924C36 12.692 38.2504 10.4416 41.0408 10.4416C41.1308 10.4416 41.3108 10.4416 41.4008 10.4416C41.7609 8.10126 43.8312 6.30098 46.2616 6.30098C48.782 6.30098 50.8523 8.19128 51.2124 10.5316C51.5724 10.5316 51.9325 10.4416 52.2925 10.4416C54.6329 10.4416 56.6132 12.0619 57.2433 14.2222L50.7623 18.4529L50.6723 18.5429H50.5823V18.6329H50.4923L50.4023 18.7229H50.3122V18.8129H50.2222V18.903H50.1322V18.993H50.0422V19.083H49.9522V19.173H49.8622V19.263L49.7722 19.353L49.6821 19.443V19.5331H49.5921V19.6231L49.5021 19.7131V19.8031H49.4121V19.8931V19.9831L49.3221 20.0731V20.1631V20.2532H49.2321V20.3432V20.4332V20.5232L49.1421 20.6132V20.7032V20.7932V20.8833V20.9733V21.0633V21.1533V21.2433V21.3333V28.5345C48.3319 28.3544 47.7018 28.1744 46.9817 27.8143V46.2672ZM82.3572 24.5738V46.0872C82.3572 46.9873 81.6371 47.7075 80.737 47.7075H70.0253V36.5457H64.6245V47.7075H54.0028C53.1027 47.7075 52.3826 46.9873 52.3826 46.0872V24.5738H82.3572ZM55.8931 36.5457H61.294V42.6667H55.8931V36.5457ZM55.8931 27.0042H61.294V33.2152H55.8931V27.0042ZM64.6245 27.0042H70.0253V33.2152H64.6245V27.0042ZM73.4459 27.0042H78.7567V33.2152H73.4459V27.0042ZM73.4459 36.5457H78.7567V42.6667H73.4459V36.5457ZM67.3249 11.4318L74.7961 16.3826L82.3572 21.3333H67.3249H52.3826L59.8537 16.3826L67.3249 11.4318Z" fill="#4E6932"/>
</g>
<defs>
<clipPath id="clip0_20014_9048">
<rect width="64" height="47.8875" fill="white" transform="translate(36)"/>
</clipPath>
</defs>
</svg>
