<svg width="100" height="100" viewBox="0 0 100 100" fill="none" xmlns="http://www.w3.org/2000/svg">
<g clip-path="url(#clip0_20014_12288)">
<path fill-rule="evenodd" clip-rule="evenodd" d="M45.2099 6.22222L60.5926 0V38.8889L45.2099 45.1111C44.5185 45.4568 44 44.9383 44 44.2469V8.2963C44 7.4321 44.5185 6.5679 45.2099 6.22222ZM98.7901 0.518519L83.4074 6.91358V45.8025L98.7901 39.4074C99.4815 39.0617 100 38.1975 100 37.3333V1.38272C100 0.691358 99.4815 0.17284 98.7901 0.518519ZM88.0741 12.7901L95.1605 9.85185C96.5432 9.33333 97.5802 10.0247 97.5802 11.5802V22.9877C97.5802 24.5432 96.5432 26.2716 95.1605 26.7901L88.0741 29.7284C86.8642 30.4198 85.6543 29.5556 85.6543 28V16.5926C85.6543 15.037 86.8642 13.3086 88.0741 12.7901ZM63.7037 0L80.2963 6.39506V45.1111L63.7037 38.8889V0ZM67.1605 12.7901C66.1235 12.4444 65.6049 11.2346 65.9506 10.1975C66.2963 9.16049 67.5062 8.46914 68.716 8.98765L76.321 11.9259C77.358 12.2716 77.8765 13.4815 77.5309 14.5185C77.1852 15.5556 75.9753 16.2469 74.7654 15.7284L67.1605 12.7901ZM67.1605 21.7778C66.1235 21.2593 65.6049 20.0494 65.9506 19.0123C66.4691 17.9753 67.679 17.4568 68.716 17.8025L73.9012 19.8765C74.9383 20.2222 75.4568 21.4321 75.1111 22.4691C74.7654 23.5062 73.5556 24.0247 72.3457 23.679L67.1605 21.7778Z" fill="#4E6932"/>
</g>
<defs>
<clipPath id="clip0_20014_12288">
<rect width="56" height="45.8025" fill="white" transform="translate(44)"/>
</clipPath>
</defs>
</svg>
