<svg viewBox="0 0 88 88" fill="none" xmlns="http://www.w3.org/2000/svg">
<path d="M44 0C19.6816 0 0 19.6792 0 44C0 68.3186 19.6788 88 44 88C68.3186 88 88 68.3208 88 44C88 19.6814 68.3208 0 44 0Z" fill="#000" fill-opacity="1"/>
<path d="M44 4C21.8923 4 4 21.8902 4 44C4 66.1078 21.8898 84 44 84C66.1078 84 84 66.1098 84 44C84 21.8922 66.1098 4 44 4ZM58.4122 48.4403L39.6163 59.3008C38.0306 60.217 36.0755 60.2186 34.4872 59.3022C32.9 58.3862 31.9223 56.693 31.9223 54.8606V33.1395C31.9223 31.307 32.9002 29.6139 34.4872 28.698C35.2803 28.2402 36.1655 28.0112 37.0506 28.0112C37.9366 28.0112 38.8227 28.2406 39.6163 28.6991L58.4123 39.5595C59.9981 40.4758 60.9748 42.1683 60.9748 43.9998C60.9748 45.8316 59.998 47.5239 58.4122 48.4403Z" fill="#A9DD38" fill-opacity="1"/>
</svg>
