<svg width="27" height="26" viewBox="0 0 27 26" fill="none" xmlns="http://www.w3.org/2000/svg">
<path d="M13.4385 2C8.46823 2 4.43848 5.69394 4.43848 10.25C4.43848 12.044 5.0801 13.6903 6.1466 15.0384C6.16573 15.0708 6.16873 15.1068 6.19048 15.1378L12.1905 23.3878C12.4687 23.7704 12.9375 24 13.4385 24C13.9395 24 14.4082 23.7704 14.6865 23.3878L20.6865 15.1378C20.7086 15.1068 20.7112 15.0708 20.7304 15.0384C21.7969 13.6903 22.4385 12.044 22.4385 10.25C22.4385 5.69394 18.4087 2 13.4385 2ZM13.4385 13C11.7817 13 10.4385 11.7687 10.4385 10.25C10.4385 8.73131 11.7817 7.5 13.4385 7.5C15.0952 7.5 16.4385 8.73131 16.4385 10.25C16.4385 11.7687 15.0952 13 13.4385 13Z" fill="#4E6932"/>
</svg>
