<svg width="25" height="24" viewBox="0 0 25 24" fill="none" xmlns="http://www.w3.org/2000/svg">
<path d="M10.4761 5.31617L11.1251 6.4791C11.7108 7.52858 11.4757 8.90532 10.5532 9.8278C10.5532 9.8278 9.43436 10.9468 11.463 12.9755C13.491 15.0035 14.6107 13.8853 14.6107 13.8853C15.5332 12.9628 16.9099 12.7277 17.9594 13.3134L19.1223 13.9624C20.7071 14.8468 20.8942 17.0692 19.5013 18.4622C18.6643 19.2992 17.6389 19.9505 16.5054 19.9934C14.5973 20.0658 11.3568 19.5829 8.10618 16.3323C4.85561 13.0817 4.37269 9.84122 4.44503 7.93309C4.488 6.7996 5.13928 5.77423 5.97629 4.93723C7.36924 3.54428 9.59165 3.73144 10.4761 5.31617Z" fill="#4E6932"/>
</svg>
