<svg width="32" height="33" viewBox="0 0 32 33" fill="none" xmlns="http://www.w3.org/2000/svg">
<path d="M18.8984 4.18933C17.3142 4.00455 15.8111 4.93351 15.268 6.43296C15.1456 6.77089 15.1026 7.13624 15.0825 7.5192C15.0674 7.80811 15.0636 8.1525 15.0629 8.5581L15.0625 9.12684C15.0625 9.13285 15.0625 9.13885 15.0625 9.14483V19.228C14.0004 18.2311 12.5715 17.6206 11 17.6206C7.72081 17.6206 5.0625 20.2789 5.0625 23.5581C5.0625 26.8374 7.72081 29.4956 11 29.4956C14.2792 29.4956 16.9375 26.8374 16.9375 23.5581V12.5713C17.0685 12.6412 17.2104 12.7121 17.3659 12.7897L20.7502 14.4819C21.2731 14.7432 21.6986 14.956 22.0472 15.108C22.3987 15.2612 22.7447 15.3862 23.1017 15.4279C24.6857 15.6126 26.1889 14.6836 26.732 13.1842C26.8545 12.8463 26.8974 12.4809 26.9176 12.098C26.9375 11.7182 26.9375 11.2425 26.9375 10.658L26.9376 10.5544C26.9377 10.1197 26.9379 9.77968 26.8762 9.45743C26.7175 8.62791 26.2589 7.88589 25.588 7.37291C25.3272 7.17363 25.0231 7.0217 24.6342 6.82748L21.2499 5.13534C20.727 4.8739 20.3015 4.66115 19.9529 4.50918C19.6014 4.35593 19.2554 4.23096 18.8984 4.18933Z" fill="#4E6932"/>
</svg>
