<svg width="114" height="32" viewBox="0 0 114 32" fill="none" xmlns="http://www.w3.org/2000/svg">
<mask id="mask0_20014_12041" style="mask-type:luminance" maskUnits="userSpaceOnUse" x="0" y="0" width="32" height="32">
<path d="M7.93235 0.0146592L9.29893 0L23.5037 0.00586367C23.7191 0.00781823 23.8536 0.0107501 23.9871 0.0146592C24.6909 0.0332275 25.4024 0.0732959 26.0984 0.199365C26.7953 0.316638 27.4728 0.53848 28.1054 0.854141C28.736 1.17176 29.314 1.5871 29.8141 2.08453C30.3141 2.57904 30.7342 3.15172 31.0549 3.77816C31.3844 4.41534 31.59 5.06817 31.7168 5.7679C31.8425 6.45883 31.8844 7.16247 31.9029 7.86123C31.9117 8.1808 31.9166 8.50037 31.9175 8.82189L31.9195 9.39262V22.0347C31.9195 22.4149 31.9195 22.796 31.9175 23.1771C31.9156 23.4977 31.9127 23.8172 31.9029 24.1378C31.8834 24.8356 31.8425 25.5402 31.7168 26.2301C31.5978 26.9221 31.3746 27.5944 31.0559 28.2199C30.7342 28.8453 30.3131 29.419 29.8151 29.9135C29.314 30.41 28.7351 30.8273 28.1054 31.1449C27.4737 31.4596 26.7944 31.6824 26.0984 31.7997C25.4024 31.9238 24.6909 31.9648 23.9871 31.9834L21.8652 32L8.41485 31.9932C8.25499 31.9941 8.09124 31.9873 7.93333 31.9844C7.22957 31.9668 6.51802 31.9257 5.82206 31.8016C5.12513 31.6824 4.44672 31.4596 3.81607 31.1439C2.54989 30.5067 1.51668 29.4806 0.864586 28.2199C0.545849 27.5944 0.321661 26.9211 0.201769 26.2301C0.076029 25.5402 0.0350903 24.8356 0.0175451 24.1378C0.00779784 23.8182 0.00487365 23.4967 0.00292419 23.1771L0 22.6035V9.96433C0 9.58417 0 9.20303 0.00292419 8.82287C0.00487365 8.50232 0.00877257 8.18275 0.0175451 7.86123C0.0370398 7.16345 0.0770037 6.45883 0.201769 5.76887C0.321661 5.07696 0.545849 4.40459 0.863611 3.77913C1.51473 2.51747 2.54989 1.4923 3.81509 0.854141C4.44672 0.53848 5.12513 0.316638 5.82109 0.198387C6.51802 0.0742731 7.2286 0.0332275 7.93235 0.0146592Z" fill="white"/>
</mask>
<g mask="url(#mask0_20014_12041)">
<path d="M0.00195312 0H31.9185V32H0.00195312V0Z" fill="#19AA1E"/>
<path fill-rule="evenodd" clip-rule="evenodd" d="M0.00195312 0H31.9185V10.4989L0.00195312 5.49914V0Z" fill="#FFB919"/>
<path fill-rule="evenodd" clip-rule="evenodd" d="M0.00195312 28.4998L31.9185 23.5V31.9994H0.00195312V28.4998Z" fill="#82D714"/>
<path fill-rule="evenodd" clip-rule="evenodd" d="M0.00195312 4.86719L11.1431 6.61261C12.5302 5.73208 14.1794 5.2493 15.9602 5.2493C18.4263 5.2493 20.6428 6.17479 22.256 7.8C22.4588 8.00523 22.6508 8.21925 22.8311 8.44305L31.9185 9.86597V11.1315L23.7542 9.85131C24.3644 11.0221 24.687 12.3258 24.688 13.6471C24.688 15.3612 24.3059 17.0705 23.5144 18.7875L23.491 18.8393L23.1547 19.5606H22.3613C20.7208 19.5606 19.634 20.0521 18.9224 20.9239C18.3639 21.607 18.0413 22.5305 17.9331 23.5371L17.9292 23.5674L17.9136 23.7287L17.9068 23.799L17.8931 23.9349C17.8522 24.3854 17.8249 24.7665 17.8103 25.0763L31.9185 22.8657V24.1313L0.00195312 29.1311V27.8665L14.1268 25.6539L14.1209 25.3695L14.119 25.2903L14.117 25.2483L14.1151 25.1848C14.1024 24.8408 14.0702 24.4 14.0205 23.8645L14.0108 23.7629L13.9932 23.587C13.8928 22.5755 13.5741 21.6412 13.0166 20.9473C12.3138 20.0697 11.2367 19.5703 9.60987 19.5606H8.76575L8.43045 18.8393C7.62337 17.1047 7.23348 15.3788 7.23348 13.6471C7.23348 11.4687 8.11366 9.36267 9.66543 7.8L9.80092 7.66709L0.00195312 6.13081V4.86719Z" fill="white"/>
<path fill-rule="evenodd" clip-rule="evenodd" d="M15.9596 6.49805C20.416 6.49805 23.4397 9.93709 23.4397 13.6468C23.4397 15.1352 23.116 16.6852 22.3597 18.3104C17.9763 18.3104 16.8934 21.4572 16.6887 23.4392L16.675 23.5701C16.6068 24.2786 16.5659 24.8455 16.5551 25.2725L15.3679 25.4582V25.4191C15.3533 24.7946 15.3065 24.1565 15.2392 23.533L15.2363 23.4988C15.0472 21.5217 13.9877 18.3104 9.55949 18.3104C8.80213 16.6852 8.47852 15.1352 8.47852 13.6468C8.47852 9.93611 11.5041 6.49805 15.9596 6.49805Z" fill="#0073FA"/>
</g>
<path fill-rule="evenodd" clip-rule="evenodd" d="M47.238 5.78125C42.3263 5.78125 38.6428 8.71015 38.674 13.7959H43.2387C43.1763 11.7622 44.498 9.78809 47.238 9.78809C49.3161 9.78809 50.6388 11.1446 50.6388 12.8714C50.6388 14.6588 49.1894 15.6459 46.8608 16.7561C43.806 18.2044 41.9803 18.8817 38.674 19.9606V25.8174H55.6753V21.8096H44.845C46.4231 21.1656 47.9593 20.458 49.3473 19.8062C53.0308 18.0813 55.2025 16.1384 55.2025 12.6564C55.2025 8.4629 51.9918 5.78223 47.238 5.78223V5.78125ZM62.6027 10.0969H71.4181V6.09007H58.195V25.8174H62.6027V10.0969ZM78.3456 6.09007H73.9368V25.8174H78.3134L86.5313 13.2105V25.8174H90.9391V6.09007H86.5313L78.3456 18.697V6.09007ZM113.074 18.4194H108.509C107.816 20.6085 105.706 22.1184 103.219 22.1184C99.5976 22.1184 97.2358 19.0673 97.2358 15.9537C97.2358 12.8401 99.5352 9.78809 103.344 9.78809C105.864 9.78809 107.816 11.2999 108.509 13.4881H113.074C112.413 9.08054 108.856 5.78125 103.219 5.78125C96.9853 5.78125 92.8281 10.0666 92.8281 15.9537C92.8281 21.8409 96.9853 26.1253 103.219 26.1253C108.856 26.1253 112.413 22.8905 113.074 18.4194Z" fill="#262626"/>
</svg>
