<svg width="222" height="32" viewBox="0 0 222 32" fill="none" xmlns="http://www.w3.org/2000/svg">
<path d="M16 0L20.7023 9.52786L31.2169 11.0557L23.6085 18.4721L25.4046 28.9443L16 24L6.59544 28.9443L8.39155 18.4721L0.783095 11.0557L11.2977 9.52786L16 0Z" fill="#4E6932"/>
<path d="M63.5 0L68.0553 9.52786L78.2414 11.0557L70.8707 18.4721L72.6107 28.9443L63.5 24L54.3893 28.9443L56.1293 18.4721L48.7586 11.0557L58.9447 9.52786L63.5 0Z" fill="#4E6932"/>
<path d="M111 0L115.702 9.52786L126.217 11.0557L118.608 18.4721L120.405 28.9443L111 24L101.595 28.9443L103.392 18.4721L95.7831 11.0557L106.298 9.52786L111 0Z" fill="#4E6932"/>
<path d="M158.5 0L163.055 9.52786L173.241 11.0557L165.871 18.4721L167.611 28.9443L158.5 24L149.389 28.9443L151.129 18.4721L143.759 11.0557L153.945 9.52786L158.5 0Z" fill="#4E6932"/>
<path d="M206 0L210.702 9.52786L221.217 11.0557L213.608 18.4721L215.405 28.9443L206 24L196.595 28.9443L198.392 18.4721L190.783 11.0557L201.298 9.52786L206 0Z" fill="#4E6932"/>
</svg>
