<svg width="158" height="32" viewBox="0 0 158 32" fill="none" xmlns="http://www.w3.org/2000/svg">
<g clip-path="url(#clip0_20014_12021)">
<path fill-rule="evenodd" clip-rule="evenodd" d="M31.4002 15.659C31.4002 7.01089 24.3712 0 15.7007 0C7.03016 0 0 7.01089 0 15.659C0 24.3072 7.02902 31.3192 15.7007 31.3192C24.3724 31.3192 31.4002 24.3072 31.4002 15.659Z" fill="#FC3F1D"/>
<path fill-rule="evenodd" clip-rule="evenodd" d="M17.7941 8.87461H16.3551C13.6727 8.87461 12.2997 10.2441 12.2997 12.2025C12.2997 14.4207 13.2814 15.4646 15.2437 16.8341L16.8795 17.9437L12.1689 24.9909H8.63672L12.8889 18.7266C10.4682 16.9657 9.09516 15.2683 9.09516 12.4623C9.09516 8.87348 11.5807 6.45898 16.3562 6.45898H21.0658V25.0545H17.7953L17.7941 8.87461Z" fill="white"/>
<path fill-rule="evenodd" clip-rule="evenodd" d="M49.6171 0.0292969C42.6552 0.0292969 37.0117 5.6582 37.0117 12.6021C37.0117 16.073 38.4223 19.2148 40.702 21.4908C42.9828 23.7669 48.3567 27.0607 48.6718 30.5191C48.7196 31.0376 49.0961 31.462 49.6171 31.462C50.1381 31.462 50.5146 31.0376 50.5624 30.5191C50.8775 27.0619 56.2514 23.768 58.5322 21.4908C60.8119 19.2148 62.2225 16.073 62.2225 12.6021C62.2225 5.6582 56.579 0.0292969 49.6171 0.0292969Z" fill="#FF4433"/>
<path fill-rule="evenodd" clip-rule="evenodd" d="M49.6166 17.0045C52.0532 17.0045 54.028 15.0347 54.028 12.6044C54.028 10.174 52.0532 8.20312 49.6166 8.20312C47.1799 8.20312 45.2051 10.174 45.2051 12.6044C45.2051 15.0347 47.1799 17.0045 49.6166 17.0045Z" fill="white"/>
<path fill-rule="evenodd" clip-rule="evenodd" d="M145.427 23.9065H143.551V18.4433H145.524C147.26 18.4433 148.278 19.2239 148.278 21.1913C148.278 23.1588 147.152 23.9065 145.427 23.9065ZM153.949 10.0413V27.0926H158V10.0413H153.949ZM139.511 10.0413V27.0926H145.663C149.64 27.0926 152.457 25.0616 152.457 21.0529C152.457 17.2576 149.939 15.2584 145.726 15.2584H143.55V10.0413H139.511ZM137.131 13.2274V10.0413H123.572V13.2274H128.332V27.0937H132.373V13.2274H137.132H137.131ZM115.223 24.239C113.079 24.239 111.986 22.5177 111.986 18.5828C111.986 14.6173 113.143 12.896 115.426 12.896C117.634 12.896 118.717 14.6173 118.717 18.5511C118.717 22.5177 117.559 24.239 115.223 24.239ZM111.686 10.0413H107.946V31.9998H111.986V25.0933C113.015 26.6115 114.505 27.4239 116.242 27.4239C120.176 27.4239 122.898 24.2809 122.898 18.5511C122.898 12.8529 120.251 9.71 116.446 9.71C114.538 9.71 112.973 10.5859 111.891 12.2436L111.686 10.0413ZM100.646 23.0204C100.132 23.7681 99.1772 24.3785 97.7519 24.3785C96.058 24.3785 95.2015 23.4277 95.2015 21.9731C95.2015 20.0386 96.595 19.3328 100.068 19.3328H100.647V23.0215L100.646 23.0204ZM104.686 15.4614C104.686 11.3348 102.575 9.77354 98.2979 9.77354C95.6178 9.77354 93.5076 10.6188 92.2847 11.3348V14.691C93.3677 13.8684 95.7475 12.9914 97.8258 12.9914C99.7551 12.9914 100.645 13.6653 100.645 15.5034V16.444H99.9906C93.8057 16.444 91.0619 18.4864 91.0619 21.9391C91.0619 25.3917 93.1629 27.3274 96.2924 27.3274C98.671 27.3274 99.6903 26.5468 100.472 25.7344H100.644C100.675 26.1724 100.814 26.7499 100.944 27.0926H104.888C104.749 25.7026 104.684 24.3127 104.684 22.9228V15.4603L104.686 15.4614ZM86.1009 27.0926H90.8924L82.4994 14.7239L90.1097 3.54102H85.9292L78.6192 14.3813V3.54102H74.5137V27.0926H78.6192V16.0378L86.1009 27.0926Z" fill="black"/>
</g>
<defs>
<clipPath id="clip0_20014_12021">
<rect width="158" height="32" fill="white"/>
</clipPath>
</defs>
</svg>
